HIERARCHY
ROOT Hips
{
	OFFSET 0.00000 0.00000 0.00000
	CHANNELS 6 Xposition Yposition Zposition Yrotation Zrotation Xrotation 
	JOINT Lumbar
	{
		OFFSET 0 0 0
		CHANNELS 3 Zrotation Xrotation Yrotation
		JOINT Neck
		{
			OFFSET 0.00 0.2701 0.00
			CHANNELS 3 Zrotation Xrotation Yrotation
			End Site
			{
				OFFSET 0.00 0.1379 0.00
			}
		}
		JOINT RightShoulder
		{
			OFFSET 0.0119 0.2289 0.1181
			CHANNELS 3 Zrotation Xrotation Yrotation
			JOINT RightElbow
			{
				OFFSET 0.00 -0.1475 0.00
				CHANNELS 2 Zrotation Yrotation
				JOINT RightWrist
				{
					OFFSET 0.00 -0.1605 0.00
					CHANNELS 2 Zrotation Xrotation
					End Site
					{
						OFFSET 0.0040 -0.1068 0.0006
					}
				}
			}
		}
		JOINT LeftShoulder
		{
			OFFSET 0.0119 0.2289 -0.1181
			CHANNELS 3 Zrotation Xrotation Yrotation
			JOINT LeftElbow
			{
				OFFSET 0.00 -0.1475 0.00
				CHANNELS 2 Zrotation Yrotation
				JOINT LeftWrist
				{
					OFFSET 0.00 -0.1605 0.00
					CHANNELS 2 Zrotation Xrotation
					End Site
					{
						OFFSET 0.0040 -0.1068 -0.0006
					}
				}
			}
		}
	}
	JOINT RightHip
	{
		OFFSET 0.0316 -0.0424 0.0458
		CHANNELS 3 Zrotation Xrotation Yrotation
		JOINT RightKnee
		{
			OFFSET 0.00 -0.2438 0.00
			CHANNELS 1 Zrotation
			JOINT RightAnkle
			{
				OFFSET 0.00 -0.2449 0.00
				CHANNELS 3 Zrotation Xrotation Yrotation
				End Site
				{
					OFFSET 0.1237 -0.0542 0.0051
				}
			}
		}
	}
	JOINT LeftHip
	{
		OFFSET 0.0316 -0.0424 -0.0458
		CHANNELS 3 Zrotation Xrotation Yrotation
		JOINT LeftKnee
		{
			OFFSET 0.00 -0.2438 0.00
			CHANNELS 1 Zrotation
			JOINT LeftAnkle
			{
				OFFSET 0.00 -0.2449 0.00
				CHANNELS 3 Zrotation Xrotation Yrotation
				End Site
				{
					OFFSET 0.1237 -0.0542 -0.0051
				}
			}
		}
	}
}
MOTION
Frames: 14
Frame Time: 0.02
-0 0.57926 -0 177.23029 0 -5.27258 5.14435 2.85868 -7.1446 -18.45906 7.66153 2.42914 2.09278 -15.66542 -37.00045 5.78694 73.61255 -3.52964 3.75646 5.87043 4.29318 32.44163 5.78689 -74.86026 -5.82025 -0.67737 -4.1853 8.96914 19.87118 -5.73017 1.19944 -4.24164 -12.5318 -4.61101 0.98998 -4.76205 -4.31342 7.71515 4.40743 5.70838
2e-05 0.57927 -5e-05 177.07894 0 -5.29143 5.18635 2.92511 -7.10945 -18.60611 7.5844 2.39479 2.20758 -15.51336 -37.10047 5.78693 73.59006 -3.45589 3.8812 5.47454 4.35646 35.24007 5.78689 -74.72689 -5.86826 -0.81097 -4.14585 8.89845 18.35059 -5.72834 1.30822 -4.10107 -10.85156 -4.62696 1.00343 -4.66774 -4.30037 7.72356 4.43209 5.75274
4e-05 0.57927 -0.0001 176.92909 0 -5.31016 5.22832 2.99148 -7.07401 -18.75515 7.50735 2.36054 2.32832 -15.36391 -37.18939 5.78694 73.56961 -3.38282 4.00245 5.08902 4.41911 38.00534 5.78694 -74.59605 -5.91535 -0.94337 -4.1064 8.82846 16.84424 -5.72688 1.41599 -3.9612 -9.18696 -4.64259 1.01677 -4.57454 -4.2874 7.73173 4.45651 5.7968
7e-05 0.57927 -0.00015 176.78347 0 -5.32846 5.2704 3.05741 -7.03824 -18.91021 7.43057 2.32705 2.46697 -15.22223 -37.24068 5.78693 73.55466 -3.31053 4.11311 4.73147 4.47936 40.70474 5.78689 -74.47758 -5.96082 -1.0736 -4.06654 8.76006 15.36957 -5.72699 1.52194 -3.821 -7.55802 -4.65764 1.02988 -4.48473 -4.27395 7.73891 4.48019 5.84012
7e-05 0.57928 -0.00021 176.6151 0 -5.34888 5.3117 3.12465 -7.00566 -19.02937 7.35324 2.29038 2.50241 -15.03797 -37.49825 5.78693 73.50761 -3.23264 4.28248 4.21417 4.55177 43.80045 5.78693 -74.29777 -6.01678 -1.217 -4.02886 8.68262 13.71463 -5.71887 1.6389 -3.68044 -5.72768 -4.67645 1.04429 -4.3768 -4.26221 7.75122 4.50777 5.88739
0.00013 0.57928 -0.00025 176.49521 0 -5.36488 5.35472 3.18976 -6.96538 -19.22706 7.27658 2.25991 2.76175 -14.94491 -37.31457 5.78696 73.53051 -3.16769 4.32575 4.04314 4.59877 46.02272 5.78711 -74.24503 -6.04921 -1.33127 -3.9866 8.6248 12.45104 -5.72809 1.73154 -3.5422 -4.33361 -4.68681 1.05589 -4.30739 -4.24745 7.75275 4.52708 5.92623
0.00037 0.5793 -0.00021 176.50927 0 -5.36791 5.40281 3.24475 -6.91022 -19.63186 7.20396 2.25086 3.62164 -15.10228 -35.90247 5.78689 73.737 -3.12912 4.02403 4.79255 4.57111 46.08048 5.78656 -74.58074 -6.02665 -1.37386 -3.92967 8.61791 12.19934 -5.78817 1.76516 -3.39429 -4.0759 -4.67725 1.06 -4.34582 -4.21865 7.72262 4.52315 5.94252
0.00068 0.57931 -0.00015 176.57223 0 -5.36657 5.45243 3.29862 -6.84613 -20.11788 7.13127 2.24728 4.71143 -15.35199 -34.04595 5.787 74.01564 -3.10511 3.59428 5.89863 4.51868 45.21411 5.78743 -75.03965 -5.97896 -1.3849 -3.86826 8.63132 12.3533 -5.86547 1.77299 -3.25114 -4.26907 -4.65847 1.06116 -4.42299 -4.18779 7.68183 4.51098 5.95031
0.00095 0.57933 -0.0001 176.61287 0 -5.36779 5.50146 3.3556 -6.78176 -20.57401 7.05743 2.23831 5.7092 -15.56079 -32.39631 5.78697 74.26842 -3.08071 3.22036 6.86629 4.4803 44.60536 5.78708 -75.41635 -5.93566 -1.40541 -3.81037 8.63774 12.36855 -5.93276 1.78707 -3.11655 -4.30262 -4.6417 1.06358 -4.48143 -4.16156 7.64725 4.50276 5.96141
0.00121 0.57934 -6e-05 176.65412 0 -5.36678 5.5509 3.40084 -6.73532 -21.00174 6.98966 2.24148 6.65579 -15.7658 -30.72283 5.7867 74.49391 -3.03081 2.85558 7.73538 4.42971 44.66889 5.78486 -75.89772 -5.92008 -1.44875 -3.74695 8.63521 12.19871 -6.00844 1.82331 -2.93821 -4.15277 -4.63428 1.06661 -4.54425 -4.11983 7.60735 4.49349 5.97436
0.00153 0.57936 2e-05 176.70547 0 -5.36915 5.59876 3.47119 -6.64993 -21.50629 6.90792 2.2208 7.7617 -15.99978 -28.99758 5.7876 74.79088 -3.03652 2.44241 8.89275 4.3992 43.12883 5.79225 -76.1978 -5.84326 -1.43416 -3.69305 8.65553 12.50135 -6.07178 1.80843 -2.85024 -4.4824 -4.60502 1.06734 -4.60761 -4.10979 7.57545 4.48468 5.98204
0.00194 0.5794 0.00023 176.77492 0 -5.38375 5.65072 3.60362 -6.45479 -22.21659 6.79861 2.13139 9.26728 -16.29807 -27.20373 5.78623 75.28911 -3.20017 1.91789 10.77302 4.42631 37.25081 5.78013 -75.90521 -5.58351 -1.29268 -3.67443 8.73932 14.08983 -6.08769 1.64858 -3.02719 -6.10827 -4.51915 1.0653 -4.65878 -4.18874 7.57291 4.47697 5.97199
0.00241 0.57944 0.00049 176.85238 0 -5.40157 5.6991 3.76293 -6.22165 -22.9984 6.67309 2.01782 10.9219 -16.62072 -25.38065 5.78694 75.85282 -3.41774 1.35093 12.92756 4.47559 29.81823 5.78625 -75.43869 -5.26758 -1.08961 -3.66409 8.84443 16.12505 -6.0922 1.4399 -3.29213 -8.18598 -4.41131 1.06052 -4.7098 -4.29948 7.57791 4.47034 5.95784
0.00286 0.57948 0.00074 176.92486 0 -5.41667 5.74372 3.91466 -6.0087 -23.73926 6.54793 1.91661 12.49829 -16.9281 -23.59205 5.79045 76.37239 -3.60546 0.80917 14.9484 4.5168 23.18416 5.81393 -75.0909 -4.98942 -0.89772 -3.64478 8.93626 17.90256 -6.10805 1.26044 -3.50559 -10.00228 -4.31264 1.05509 -4.76382 -4.39498 7.57637 4.46475 5.9491
